<svg width="32" height="32" viewBox="0 0 32 32" fill="#1C1C12" xmlns="http://www.w3.org/2000/svg">
<g clip-path="url(#clip0_2616_4236)">
<path d="M28.3469 13.7893C28.3469 10.9484 26.0888 8.69025 23.2479 8.69025C21.8639 8.69025 20.5527 9.27299 19.6057 10.2199C18.8773 9.41866 17.8575 8.90878 16.7648 8.76305C17.0562 6.28637 19.2415 4.31962 21.791 4.31962C22.2281 4.31962 22.5194 4.02822 22.5194 3.59121C22.5194 3.15421 22.228 2.86281 21.791 2.86281C20.1156 2.86281 18.513 3.51841 17.2747 4.68389C17.0562 3.51841 16.5463 2.4986 15.6722 1.69733C14.4339 0.458991 12.6128 -0.123747 10.7917 0.0219218C10.4275 0.0219218 10.209 0.313322 10.1361 0.677525C9.91759 2.57147 10.5732 4.31968 11.8115 5.55802C12.1757 5.92223 12.5399 6.14076 12.9042 6.43216C13.2684 6.6507 13.7055 6.50503 13.924 6.21363C14.1425 5.84942 13.9969 5.41236 13.7055 5.19382C13.4141 5.04815 13.1227 4.82962 12.9042 4.53822C12.0301 3.73695 11.5931 2.64427 11.5931 1.40599C12.8314 1.40599 13.924 1.84306 14.7253 2.64434C15.6722 3.59128 16.1093 4.90248 15.9636 6.43216C15.9636 6.50503 15.9636 6.57783 15.8908 6.6507C15.8908 6.72356 15.7451 7.0149 15.6722 7.08777C15.3808 7.81617 15.2352 8.61745 15.2352 9.41872C15.2352 9.85579 15.5266 10.1471 15.9636 10.1471C18.0032 10.1471 19.6057 11.7497 19.6057 13.7893C19.6057 15.8289 18.0032 17.4314 15.9636 17.4314C13.9239 17.4314 12.3214 15.8289 12.3214 13.7893C12.3214 12.7695 12.7585 11.7497 13.5597 11.0941C13.8511 10.8027 13.8511 10.3657 13.6326 10.0743C13.3412 9.78286 12.9042 9.78286 12.6128 10.0014C12.5399 10.0743 12.4671 10.1471 12.3943 10.2199C11.4473 9.27299 10.1361 8.69025 8.75211 8.69025C5.91122 8.69025 3.65308 10.9484 3.65308 13.7893C3.65308 16.6302 5.91122 18.8883 8.75211 18.8883C9.33485 18.8883 9.91759 18.8155 10.4275 18.5969C10.7917 18.4512 11.0103 18.0142 10.8646 17.65C10.7189 17.2858 10.2819 17.0672 9.91765 17.2129C9.48058 17.3586 9.11638 17.4314 8.67931 17.4314C6.63969 17.4314 5.03715 15.8289 5.03715 13.7893C5.03715 11.7497 6.63969 10.1471 8.67931 10.1471C9.77198 10.1471 10.7917 10.657 11.4473 11.4583C11.0831 12.1867 10.8646 12.9879 10.8646 13.7892C10.8646 16.4844 12.977 18.7425 15.6722 18.8883C15.8908 19.3253 15.9636 19.8352 15.9636 20.3451C15.9636 22.3847 14.3611 23.9873 12.3215 23.9873C10.5004 23.9873 9.04351 22.6761 8.75217 20.9279C8.67931 20.5637 8.3151 20.2723 7.87804 20.3451C7.51383 20.418 7.22243 20.7822 7.2953 21.2193C7.6595 23.2589 9.18924 24.8614 11.156 25.2985C10.9375 25.8084 10.8646 26.3183 10.8646 26.901C10.8646 29.7419 13.1227 32.0001 15.9636 32.0001C18.4403 32.0001 20.5527 30.179 20.9898 27.7752C21.0627 27.411 20.7713 26.9739 20.4071 26.901C20.0429 26.8282 19.6058 27.1196 19.5329 27.4838C19.2415 29.232 17.7847 30.5432 15.9636 30.5432C13.924 30.5432 12.3215 28.9407 12.3215 26.901C12.3215 26.3912 12.4671 25.8812 12.6129 25.4442C15.3081 25.2985 17.4205 23.0403 17.4205 20.3451C17.4205 19.7624 17.3476 19.2525 17.1291 18.7426C19.3872 18.2326 21.0626 16.1931 21.0626 13.7893C21.0626 12.9151 20.8441 12.1139 20.4799 11.4583C21.1355 10.6571 22.1553 10.1472 23.2479 10.1472C25.2875 10.1472 26.89 11.7497 26.89 13.7893C26.89 15.829 25.2875 17.4315 23.2479 17.4315C22.8108 17.4315 22.4466 17.3586 22.0095 17.213C21.6453 17.0673 21.2083 17.2858 21.0626 17.65C20.9169 18.0142 21.1355 18.4513 21.4997 18.597C21.9367 18.7426 22.3738 18.8155 22.8837 18.8884C23.1022 19.3254 23.1751 19.8353 23.1751 20.3453C23.1751 22.3849 21.5725 23.9874 19.5329 23.9874C19.0958 23.9874 18.7316 23.9145 18.2946 23.7689C17.9304 23.6232 17.4933 23.8417 17.3476 24.2059C17.202 24.5702 17.4205 25.0072 17.7847 25.1529C18.3674 25.3714 18.8774 25.4443 19.4601 25.4443C22.301 25.4443 24.5591 23.1861 24.5591 20.3453C24.5591 19.7625 24.4863 19.2526 24.2677 18.7427C26.6715 18.2327 28.3469 16.1931 28.3469 13.7893Z" />
</g>
<defs>
<clipPath id="clip0_2616_4236">
<rect width="32" height="32" fill="white"/>
</clipPath>
</defs>
</svg>
