<svg width="28" height="28" viewBox="0 0 28 28" fill="none" stroke="#CABEA7" xmlns="http://www.w3.org/2000/svg">
<path d="M3.5 7H5.83333H24.5" stroke-width="1.5" stroke-linecap="round" stroke-linejoin="round"/>
<path d="M9.33331 6.99967V4.66634C9.33331 4.0475 9.57915 3.45401 10.0167 3.01643C10.4543 2.57884 11.0478 2.33301 11.6666 2.33301H16.3333C16.9522 2.33301 17.5456 2.57884 17.9832 3.01643C18.4208 3.45401 18.6666 4.0475 18.6666 4.66634V6.99967M22.1666 6.99967V23.333C22.1666 23.9518 21.9208 24.5453 21.4832 24.9829C21.0456 25.4205 20.4522 25.6663 19.8333 25.6663H8.16665C7.54781 25.6663 6.95432 25.4205 6.51673 24.9829C6.07915 24.5453 5.83331 23.9518 5.83331 23.333V6.99967H22.1666Z" stroke-width="1.5" stroke-linecap="round" stroke-linejoin="round"/>
<path d="M16.3333 12.833V19.833" stroke-width="1.5" stroke-linecap="round" stroke-linejoin="round"/>
<path d="M11.6667 12.833V19.833" stroke-width="1.5" stroke-linecap="round" stroke-linejoin="round"/>
</svg>
