<svg viewBox="0 0 221 116" fill="#4A4509" xmlns="http://www.w3.org/2000/svg">
<path d="M200.509 21.6499C202.328 21.6499 204.33 21.7978 206.513 22.0935C208.758 22.3893 210.941 22.7738 213.064 23.247C212.639 26.3821 212.184 29.6651 211.699 33.096C211.214 36.4677 210.759 39.7803 210.334 43.0337C209.971 46.2279 209.637 49.1264 209.334 51.7291C209.091 54.3319 208.97 56.3726 208.97 57.8515C208.97 58.9754 209.061 60.0105 209.243 60.957C209.485 61.8443 210.092 62.2879 211.062 62.2879C212.033 62.2879 213.064 61.6964 214.156 60.5133C215.247 59.2711 216.218 57.1712 217.067 54.2136L220.433 55.0121C220.19 56.136 219.766 57.4374 219.159 58.9162C218.613 60.3359 217.855 61.7556 216.885 63.1752C215.914 64.5357 214.701 65.6892 213.246 66.6357C211.851 67.523 210.213 67.9666 208.333 67.9666C206.028 67.9666 204.3 67.2863 203.147 65.9258C201.995 64.5653 201.419 62.5837 201.419 59.981C201.419 58.5613 201.54 57.0233 201.783 55.367C202.025 53.7108 202.298 52.0249 202.601 50.3095H202.419C201.085 54.0953 199.69 57.1416 198.234 59.4486C196.779 61.7555 195.323 63.5301 193.867 64.7723C192.412 66.0146 190.956 66.8427 189.501 67.2568C188.106 67.73 186.741 67.9666 185.407 67.9666C182.131 67.9666 179.341 66.754 177.037 64.3287C174.792 61.8443 173.67 57.8219 173.67 52.2615C173.67 48.18 174.216 44.3055 175.308 40.638C176.46 36.9113 178.159 33.6284 180.403 30.789C182.708 27.9497 185.528 25.7315 188.864 24.1343C192.26 22.478 196.142 21.6499 200.509 21.6499ZM197.507 25.7315C195.141 25.7315 193.049 26.4117 191.229 27.7722C189.41 29.0736 187.863 30.9073 186.589 33.2734C185.376 35.6396 184.466 38.3902 183.86 41.5253C183.253 44.6012 182.95 47.9138 182.95 51.4629C182.95 54.7755 183.314 57.4965 184.042 59.626C184.83 61.6964 186.165 62.7316 188.045 62.7316C189.561 62.7316 191.047 61.9922 192.503 60.5133C194.019 58.9754 195.414 56.9346 196.688 54.391C198.022 51.8474 199.175 49.0081 200.145 45.873C201.176 42.6788 201.965 39.4253 202.51 36.1128C203.117 32.8002 203.451 29.6355 203.511 26.6187C202.783 26.323 201.874 26.1159 200.782 25.9976C199.751 25.8202 198.659 25.7315 197.507 25.7315Z" />
<path d="M200.509 21.6499C202.328 21.6499 204.33 21.7978 206.513 22.0935C208.758 22.3893 210.941 22.7738 213.064 23.247C212.639 26.3821 212.184 29.6651 211.699 33.096C211.214 36.4677 210.759 39.7803 210.334 43.0337C209.971 46.2279 209.637 49.1264 209.334 51.7291C209.091 54.3319 208.97 56.3726 208.97 57.8515C208.97 58.9754 209.061 60.0105 209.243 60.957C209.485 61.8443 210.092 62.2879 211.062 62.2879C212.033 62.2879 213.064 61.6964 214.156 60.5133C215.247 59.2711 216.218 57.1712 217.067 54.2136L220.433 55.0121C220.19 56.136 219.766 57.4374 219.159 58.9162C218.613 60.3359 217.855 61.7556 216.885 63.1752C215.914 64.5357 214.701 65.6892 213.246 66.6357C211.851 67.523 210.213 67.9666 208.333 67.9666C206.028 67.9666 204.3 67.2863 203.147 65.9258C201.995 64.5653 201.419 62.5837 201.419 59.981C201.419 58.5613 201.54 57.0233 201.783 55.367C202.025 53.7108 202.298 52.0249 202.601 50.3095H202.419C201.085 54.0953 199.69 57.1416 198.234 59.4486C196.779 61.7555 195.323 63.5301 193.867 64.7723C192.412 66.0146 190.956 66.8427 189.501 67.2568C188.106 67.73 186.741 67.9666 185.407 67.9666C182.131 67.9666 179.341 66.754 177.037 64.3287C174.792 61.8443 173.67 57.8219 173.67 52.2615C173.67 48.18 174.216 44.3055 175.308 40.638C176.46 36.9113 178.159 33.6284 180.403 30.789C182.708 27.9497 185.528 25.7315 188.864 24.1343C192.26 22.478 196.142 21.6499 200.509 21.6499ZM197.507 25.7315C195.141 25.7315 193.049 26.4117 191.229 27.7722C189.41 29.0736 187.863 30.9073 186.589 33.2734C185.376 35.6396 184.466 38.3902 183.86 41.5253C183.253 44.6012 182.95 47.9138 182.95 51.4629C182.95 54.7755 183.314 57.4965 184.042 59.626C184.83 61.6964 186.165 62.7316 188.045 62.7316C189.561 62.7316 191.047 61.9922 192.503 60.5133C194.019 58.9754 195.414 56.9346 196.688 54.391C198.022 51.8474 199.175 49.0081 200.145 45.873C201.176 42.6788 201.965 39.4253 202.51 36.1128C203.117 32.8002 203.451 29.6355 203.511 26.6187C202.783 26.323 201.874 26.1159 200.782 25.9976C199.751 25.8202 198.659 25.7315 197.507 25.7315Z" fill="black" fill-opacity="0.2"/>
<path d="M155.803 21.6499C158.29 21.6499 160.352 22.3597 161.99 23.7794C163.627 25.1991 164.84 27.0624 165.629 29.3694C166.478 31.6763 166.903 34.2199 166.903 37.0001C166.903 39.7803 166.508 42.5604 165.72 45.3406C165.113 47.9434 164.113 50.5757 162.718 53.2375C161.383 55.8994 159.715 58.3543 157.714 60.6021C155.773 62.7907 153.559 64.5653 151.072 65.9258C148.646 67.2864 146.008 67.9666 143.157 67.9666C140.61 67.9666 138.548 67.4342 136.971 66.3695C135.394 65.3047 134.241 63.8555 133.514 62.0217C132.786 60.1289 132.422 58.0585 132.422 55.8107C132.361 53.622 132.422 51.3447 132.604 48.9785C132.786 46.6124 132.968 44.2759 133.15 41.9689C133.392 39.662 133.605 37.5325 133.787 35.5804C133.969 33.6284 134.06 32.0608 134.06 30.8778C134.06 29.813 133.908 28.9849 133.605 28.3933C133.301 27.7427 132.725 27.4173 131.876 27.4173C131.027 27.4173 130.087 28.0384 129.056 29.2806C128.085 30.4637 127.176 32.5636 126.326 35.5804L122.96 34.6931C123.203 33.5692 123.597 32.2678 124.143 30.789C124.749 29.3102 125.538 27.8905 126.508 26.53C127.479 25.1104 128.661 23.9569 130.056 23.0696C131.512 22.1823 133.18 21.7091 135.06 21.6499C136.94 21.5908 138.457 21.9457 139.609 22.7147C140.762 23.4836 141.611 24.5484 142.157 25.9089C142.702 27.2694 143.006 28.8666 143.066 30.7003C143.066 32.534 142.975 34.634 142.793 37.0001C142.672 39.307 142.49 41.6732 142.248 44.0984C142.005 46.5237 141.793 48.8011 141.611 50.9306C141.489 53.0601 141.398 54.8642 141.338 56.3431C141.338 57.1712 141.398 58.0881 141.52 59.0937C141.641 60.0401 141.975 60.8683 142.52 61.5781C143.127 62.2288 144.067 62.5541 145.341 62.5541C146.918 62.5541 148.525 62.0513 150.163 61.0457C151.8 60.0401 153.377 58.7092 154.893 57.0529C156.41 55.3966 157.714 53.4742 158.805 51.2855C159.897 49.0377 160.686 46.7011 161.171 44.2759C161.414 43.2703 161.595 42.0281 161.717 40.5493C161.899 39.0113 161.929 37.4733 161.808 35.9353C161.686 34.3382 161.353 32.9185 160.807 31.6763C160.261 30.375 159.442 29.4877 158.351 29.0144C157.926 29.6651 157.38 30.1679 156.713 30.5228C156.046 30.8186 155.318 30.9665 154.53 30.9665C153.559 30.9665 152.589 30.6411 151.618 29.9905C150.648 29.2806 150.132 28.1863 150.072 26.7075C150.072 25.9976 150.254 25.2582 150.617 24.4892C150.981 23.7203 151.588 23.0696 152.437 22.5372C153.286 21.9457 154.408 21.6499 155.803 21.6499Z" />
<path d="M155.803 21.6499C158.29 21.6499 160.352 22.3597 161.99 23.7794C163.627 25.1991 164.84 27.0624 165.629 29.3694C166.478 31.6763 166.903 34.2199 166.903 37.0001C166.903 39.7803 166.508 42.5604 165.72 45.3406C165.113 47.9434 164.113 50.5757 162.718 53.2375C161.383 55.8994 159.715 58.3543 157.714 60.6021C155.773 62.7907 153.559 64.5653 151.072 65.9258C148.646 67.2864 146.008 67.9666 143.157 67.9666C140.61 67.9666 138.548 67.4342 136.971 66.3695C135.394 65.3047 134.241 63.8555 133.514 62.0217C132.786 60.1289 132.422 58.0585 132.422 55.8107C132.361 53.622 132.422 51.3447 132.604 48.9785C132.786 46.6124 132.968 44.2759 133.15 41.9689C133.392 39.662 133.605 37.5325 133.787 35.5804C133.969 33.6284 134.06 32.0608 134.06 30.8778C134.06 29.813 133.908 28.9849 133.605 28.3933C133.301 27.7427 132.725 27.4173 131.876 27.4173C131.027 27.4173 130.087 28.0384 129.056 29.2806C128.085 30.4637 127.176 32.5636 126.326 35.5804L122.96 34.6931C123.203 33.5692 123.597 32.2678 124.143 30.789C124.749 29.3102 125.538 27.8905 126.508 26.53C127.479 25.1104 128.661 23.9569 130.056 23.0696C131.512 22.1823 133.18 21.7091 135.06 21.6499C136.94 21.5908 138.457 21.9457 139.609 22.7147C140.762 23.4836 141.611 24.5484 142.157 25.9089C142.702 27.2694 143.006 28.8666 143.066 30.7003C143.066 32.534 142.975 34.634 142.793 37.0001C142.672 39.307 142.49 41.6732 142.248 44.0984C142.005 46.5237 141.793 48.8011 141.611 50.9306C141.489 53.0601 141.398 54.8642 141.338 56.3431C141.338 57.1712 141.398 58.0881 141.52 59.0937C141.641 60.0401 141.975 60.8683 142.52 61.5781C143.127 62.2288 144.067 62.5541 145.341 62.5541C146.918 62.5541 148.525 62.0513 150.163 61.0457C151.8 60.0401 153.377 58.7092 154.893 57.0529C156.41 55.3966 157.714 53.4742 158.805 51.2855C159.897 49.0377 160.686 46.7011 161.171 44.2759C161.414 43.2703 161.595 42.0281 161.717 40.5493C161.899 39.0113 161.929 37.4733 161.808 35.9353C161.686 34.3382 161.353 32.9185 160.807 31.6763C160.261 30.375 159.442 29.4877 158.351 29.0144C157.926 29.6651 157.38 30.1679 156.713 30.5228C156.046 30.8186 155.318 30.9665 154.53 30.9665C153.559 30.9665 152.589 30.6411 151.618 29.9905C150.648 29.2806 150.132 28.1863 150.072 26.7075C150.072 25.9976 150.254 25.2582 150.617 24.4892C150.981 23.7203 151.588 23.0696 152.437 22.5372C153.286 21.9457 154.408 21.6499 155.803 21.6499Z" fill="black" fill-opacity="0.2"/>
<path d="M105.579 21.6499C108.308 21.6499 110.309 22.5372 111.583 24.3118C112.857 26.0272 113.494 28.3342 113.494 31.2327C113.494 32.889 113.312 34.9002 112.948 37.2663C112.644 39.5732 112.25 42.0281 111.765 44.6308C111.34 47.2335 110.977 49.7771 110.673 52.2615C110.37 54.746 110.218 56.9938 110.218 59.005C110.218 60.1289 110.4 60.957 110.764 61.4894C111.189 62.0218 111.765 62.2879 112.493 62.2879C113.463 62.2879 114.464 61.6964 115.495 60.5134C116.587 59.2711 117.557 57.1712 118.406 54.2136L121.773 55.0121C121.53 56.2544 121.105 57.6444 120.499 59.1824C119.892 60.6612 119.074 62.0809 118.043 63.4414C117.072 64.7428 115.889 65.8371 114.494 66.7244C113.099 67.5526 111.492 67.9666 109.673 67.9666C106.701 67.9666 104.547 67.1976 103.213 65.6597C101.939 64.1217 101.303 61.933 101.303 59.0937C101.303 56.7867 101.454 54.4206 101.757 51.9953C102.121 49.5701 102.516 47.1448 102.94 44.7195C103.365 42.2943 103.759 39.9282 104.123 37.6212C104.487 35.2551 104.669 32.9777 104.669 30.789C104.669 29.9609 104.487 29.1919 104.123 28.4821C103.82 27.7131 103.274 27.3286 102.485 27.3286C101.576 27.3286 100.575 27.9497 99.483 29.1919C98.3913 30.375 97.4209 32.4453 96.5717 35.403L93.2056 34.6044C93.4482 33.4805 93.8727 32.2087 94.4793 30.789C95.0858 29.3102 95.8742 27.8906 96.8447 26.53C97.8758 25.1104 99.0888 23.9569 100.484 23.0696C101.939 22.1231 103.638 21.6499 105.579 21.6499ZM110.036 1.41965C111.674 1.41965 112.978 1.9816 113.949 3.1055C114.98 4.17026 115.495 5.56035 115.495 7.27578C115.434 8.93206 114.858 10.2926 113.767 11.3573C112.675 12.4221 111.371 12.9545 109.855 12.9545C108.278 12.9545 106.943 12.4221 105.851 11.3573C104.82 10.2926 104.335 8.93206 104.396 7.27578C104.396 5.56035 104.972 4.17026 106.124 3.1055C107.277 1.9816 108.581 1.41965 110.036 1.41965Z" />
<path d="M105.579 21.6499C108.308 21.6499 110.309 22.5372 111.583 24.3118C112.857 26.0272 113.494 28.3342 113.494 31.2327C113.494 32.889 113.312 34.9002 112.948 37.2663C112.644 39.5732 112.25 42.0281 111.765 44.6308C111.34 47.2335 110.977 49.7771 110.673 52.2615C110.37 54.746 110.218 56.9938 110.218 59.005C110.218 60.1289 110.4 60.957 110.764 61.4894C111.189 62.0218 111.765 62.2879 112.493 62.2879C113.463 62.2879 114.464 61.6964 115.495 60.5134C116.587 59.2711 117.557 57.1712 118.406 54.2136L121.773 55.0121C121.53 56.2544 121.105 57.6444 120.499 59.1824C119.892 60.6612 119.074 62.0809 118.043 63.4414C117.072 64.7428 115.889 65.8371 114.494 66.7244C113.099 67.5526 111.492 67.9666 109.673 67.9666C106.701 67.9666 104.547 67.1976 103.213 65.6597C101.939 64.1217 101.303 61.933 101.303 59.0937C101.303 56.7867 101.454 54.4206 101.757 51.9953C102.121 49.5701 102.516 47.1448 102.94 44.7195C103.365 42.2943 103.759 39.9282 104.123 37.6212C104.487 35.2551 104.669 32.9777 104.669 30.789C104.669 29.9609 104.487 29.1919 104.123 28.4821C103.82 27.7131 103.274 27.3286 102.485 27.3286C101.576 27.3286 100.575 27.9497 99.483 29.1919C98.3913 30.375 97.4209 32.4453 96.5717 35.403L93.2056 34.6044C93.4482 33.4805 93.8727 32.2087 94.4793 30.789C95.0858 29.3102 95.8742 27.8906 96.8447 26.53C97.8758 25.1104 99.0888 23.9569 100.484 23.0696C101.939 22.1231 103.638 21.6499 105.579 21.6499ZM110.036 1.41965C111.674 1.41965 112.978 1.9816 113.949 3.1055C114.98 4.17026 115.495 5.56035 115.495 7.27578C115.434 8.93206 114.858 10.2926 113.767 11.3573C112.675 12.4221 111.371 12.9545 109.855 12.9545C108.278 12.9545 106.943 12.4221 105.851 11.3573C104.82 10.2926 104.335 8.93206 104.396 7.27578C104.396 5.56035 104.972 4.17026 106.124 3.1055C107.277 1.9816 108.581 1.41965 110.036 1.41965Z" fill="black" fill-opacity="0.2"/>
<path d="M86.7425 0C86.5605 1.59713 86.3179 3.31256 86.0147 5.1463C85.7114 6.92089 85.4385 8.6659 85.1959 10.3813C84.9533 12.0968 84.741 13.6643 84.559 15.084C84.0738 18.6332 83.6189 22.1823 83.1944 25.7315C82.8304 29.2215 82.4665 32.6228 82.1026 35.9354C81.7387 39.1888 81.4354 42.2647 81.1928 45.1632C80.9502 48.0026 80.7379 50.5461 80.556 52.7939C80.4347 55.0417 80.374 56.8755 80.374 58.2952C80.374 59.4191 80.4953 60.3655 80.7379 61.1345C80.9806 61.9035 81.5567 62.288 82.4665 62.288C83.3763 62.288 84.3467 61.6964 85.3778 60.5134C86.4696 59.3303 87.4703 57.2304 88.3801 54.2136L91.6553 55.1009C91.4127 56.2248 90.9881 57.5557 90.3816 59.0937C89.7751 60.5725 88.9563 61.9922 87.9252 63.3527C86.9548 64.6541 85.7417 65.7484 84.2861 66.6357C82.8304 67.523 81.1322 67.9666 79.1913 67.9666C76.8259 67.9666 74.976 67.3455 73.6417 66.1033C72.3073 64.8611 71.6402 62.9387 71.6402 60.3359C71.5795 58.6205 71.6402 56.3727 71.8221 53.5925C72.0041 50.8123 72.2467 47.7364 72.5499 44.3647C72.8532 40.9338 73.1868 37.3846 73.5507 33.7171C73.9753 29.9905 74.3998 26.3526 74.8244 22.8034C75.3096 19.1951 75.7645 15.8234 76.1891 12.6883C76.4317 11.2686 76.6136 10.1447 76.7349 9.31658C76.8562 8.42929 76.9775 7.57157 77.0988 6.74343C76.0678 6.80258 74.976 6.86173 73.8236 6.92089C72.6712 6.98004 71.6098 7.03919 70.6394 7.09835L71.0943 2.48442C73.8236 2.48442 75.9768 2.36612 77.5537 2.12951C79.1913 1.83374 80.4347 1.5084 81.2838 1.15348C82.1936 0.798566 82.8911 0.414072 83.3763 0H86.7425Z" />
<path d="M86.7425 0C86.5605 1.59713 86.3179 3.31256 86.0147 5.1463C85.7114 6.92089 85.4385 8.6659 85.1959 10.3813C84.9533 12.0968 84.741 13.6643 84.559 15.084C84.0738 18.6332 83.6189 22.1823 83.1944 25.7315C82.8304 29.2215 82.4665 32.6228 82.1026 35.9354C81.7387 39.1888 81.4354 42.2647 81.1928 45.1632C80.9502 48.0026 80.7379 50.5461 80.556 52.7939C80.4347 55.0417 80.374 56.8755 80.374 58.2952C80.374 59.4191 80.4953 60.3655 80.7379 61.1345C80.9806 61.9035 81.5567 62.288 82.4665 62.288C83.3763 62.288 84.3467 61.6964 85.3778 60.5134C86.4696 59.3303 87.4703 57.2304 88.3801 54.2136L91.6553 55.1009C91.4127 56.2248 90.9881 57.5557 90.3816 59.0937C89.7751 60.5725 88.9563 61.9922 87.9252 63.3527C86.9548 64.6541 85.7417 65.7484 84.2861 66.6357C82.8304 67.523 81.1322 67.9666 79.1913 67.9666C76.8259 67.9666 74.976 67.3455 73.6417 66.1033C72.3073 64.8611 71.6402 62.9387 71.6402 60.3359C71.5795 58.6205 71.6402 56.3727 71.8221 53.5925C72.0041 50.8123 72.2467 47.7364 72.5499 44.3647C72.8532 40.9338 73.1868 37.3846 73.5507 33.7171C73.9753 29.9905 74.3998 26.3526 74.8244 22.8034C75.3096 19.1951 75.7645 15.8234 76.1891 12.6883C76.4317 11.2686 76.6136 10.1447 76.7349 9.31658C76.8562 8.42929 76.9775 7.57157 77.0988 6.74343C76.0678 6.80258 74.976 6.86173 73.8236 6.92089C72.6712 6.98004 71.6098 7.03919 70.6394 7.09835L71.0943 2.48442C73.8236 2.48442 75.9768 2.36612 77.5537 2.12951C79.1913 1.83374 80.4347 1.5084 81.2838 1.15348C82.1936 0.798566 82.8911 0.414072 83.3763 0H86.7425Z" fill="black" fill-opacity="0.2"/>
<path d="M33.212 3.46039C38.61 3.46039 43.2195 4.40683 47.0406 6.29973C50.8617 8.13346 53.9853 10.5883 56.4113 13.6643C58.8374 16.7402 60.5963 20.1415 61.688 23.8681C62.7798 27.5356 63.2953 31.1735 63.2347 34.7818C63.174 38.5676 62.4159 42.4125 60.9602 46.3166C59.5652 50.2207 57.5031 53.8586 54.7737 57.2303C52.0444 60.5429 48.6176 63.2344 44.4932 65.3047C40.3689 67.3751 35.5471 68.4102 30.0278 68.4102C24.5691 68.4102 19.8989 67.4934 16.0172 65.6596C12.1961 63.8259 9.07251 61.4006 6.64644 58.3838C4.28101 55.367 2.55243 52.0249 1.4607 48.3574C0.429617 44.6899 -0.0555977 40.9929 0.00505435 37.2663C0.0657062 33.0072 0.854181 28.8665 2.37048 24.8441C3.88678 20.8218 6.07025 17.2134 8.92089 14.0192C11.8322 10.7658 15.3197 8.19262 19.3833 6.29973C23.447 4.40683 28.0566 3.46039 33.212 3.46039ZM32.3932 7.80812C28.8147 7.86728 25.6608 8.72499 22.9315 10.3813C20.2628 12.0376 18.0187 14.2558 16.1991 17.036C14.3796 19.757 12.9846 22.7442 12.0141 25.9976C11.0437 29.251 10.5282 32.4749 10.4675 35.6691C10.4069 38.5676 10.7101 41.6731 11.3773 44.9857C12.0445 48.2391 13.1665 51.3151 14.7435 54.2136C16.3204 57.112 18.4129 59.4782 21.0209 61.3119C23.6896 63.0865 26.9345 63.9738 30.7556 63.9738C34.4553 63.9738 37.6699 63.1456 40.3992 61.4893C43.1286 59.8331 45.3727 57.6444 47.1316 54.9234C48.9511 52.1432 50.3158 49.1264 51.2256 45.873C52.196 42.6196 52.6812 39.4253 52.6812 36.2902C52.7419 32.5636 52.378 29.0144 51.5895 25.6427C50.801 22.2118 49.5577 19.1655 47.8594 16.5036C46.1612 13.8417 44.008 11.7418 41.4 10.2038C38.8526 8.60669 35.8503 7.80812 32.3932 7.80812Z" />
<path d="M33.212 3.46039C38.61 3.46039 43.2195 4.40683 47.0406 6.29973C50.8617 8.13346 53.9853 10.5883 56.4113 13.6643C58.8374 16.7402 60.5963 20.1415 61.688 23.8681C62.7798 27.5356 63.2953 31.1735 63.2347 34.7818C63.174 38.5676 62.4159 42.4125 60.9602 46.3166C59.5652 50.2207 57.5031 53.8586 54.7737 57.2303C52.0444 60.5429 48.6176 63.2344 44.4932 65.3047C40.3689 67.3751 35.5471 68.4102 30.0278 68.4102C24.5691 68.4102 19.8989 67.4934 16.0172 65.6596C12.1961 63.8259 9.07251 61.4006 6.64644 58.3838C4.28101 55.367 2.55243 52.0249 1.4607 48.3574C0.429617 44.6899 -0.0555977 40.9929 0.00505435 37.2663C0.0657062 33.0072 0.854181 28.8665 2.37048 24.8441C3.88678 20.8218 6.07025 17.2134 8.92089 14.0192C11.8322 10.7658 15.3197 8.19262 19.3833 6.29973C23.447 4.40683 28.0566 3.46039 33.212 3.46039ZM32.3932 7.80812C28.8147 7.86728 25.6608 8.72499 22.9315 10.3813C20.2628 12.0376 18.0187 14.2558 16.1991 17.036C14.3796 19.757 12.9846 22.7442 12.0141 25.9976C11.0437 29.251 10.5282 32.4749 10.4675 35.6691C10.4069 38.5676 10.7101 41.6731 11.3773 44.9857C12.0445 48.2391 13.1665 51.3151 14.7435 54.2136C16.3204 57.112 18.4129 59.4782 21.0209 61.3119C23.6896 63.0865 26.9345 63.9738 30.7556 63.9738C34.4553 63.9738 37.6699 63.1456 40.3992 61.4893C43.1286 59.8331 45.3727 57.6444 47.1316 54.9234C48.9511 52.1432 50.3158 49.1264 51.2256 45.873C52.196 42.6196 52.6812 39.4253 52.6812 36.2902C52.7419 32.5636 52.378 29.0144 51.5895 25.6427C50.801 22.2118 49.5577 19.1655 47.8594 16.5036C46.1612 13.8417 44.008 11.7418 41.4 10.2038C38.8526 8.60669 35.8503 7.80812 32.3932 7.80812Z" fill="black" fill-opacity="0.2"/>
<path d="M41.9459 20.6739C40.9754 19.55 39.6714 18.988 38.0338 18.988C36.5782 18.988 35.2741 19.55 34.1218 20.6739C32.9694 21.7386 32.3932 23.1287 32.3932 24.8441C32.3325 26.5004 32.8177 27.8609 33.8488 28.9257C34.9406 29.9905 36.2749 30.5228 37.8519 30.5228C39.3682 30.5228 40.6722 29.9905 41.7639 28.9257C42.8556 27.8609 43.4318 26.5004 43.4925 24.8441C43.4925 23.1287 42.9769 21.7386 41.9459 20.6739Z" />
<path d="M41.9459 20.6739C40.9754 19.55 39.6714 18.988 38.0338 18.988C36.5782 18.988 35.2741 19.55 34.1218 20.6739C32.9694 21.7386 32.3932 23.1287 32.3932 24.8441C32.3325 26.5004 32.8177 27.8609 33.8488 28.9257C34.9406 29.9905 36.2749 30.5228 37.8519 30.5228C39.3682 30.5228 40.6722 29.9905 41.7639 28.9257C42.8556 27.8609 43.4318 26.5004 43.4925 24.8441C43.4925 23.1287 42.9769 21.7386 41.9459 20.6739Z" fill="black" fill-opacity="0.2"/>
<path d="M144.616 115.569L145.351 82.2799L166.293 82.7055L166.214 86.2815L149.474 85.9412L149.226 97.1893L164.881 97.5075L164.802 101.083L149.147 100.765L148.897 112.078L165.908 112.424L165.829 116L144.616 115.569Z" />
<path d="M144.616 115.569L145.351 82.2799L166.293 82.7055L166.214 86.2815L149.474 85.9412L149.226 97.1893L164.881 97.5075L164.802 101.083L149.147 100.765L148.897 112.078L165.908 112.424L165.829 116L144.616 115.569Z" fill="black" fill-opacity="0.2"/>
<path d="M136.943 82.1089L136.208 115.398L132.141 115.315L113.81 88.7939L113.471 88.787L112.894 114.924L108.692 114.839L109.427 81.5497L113.493 81.6323L131.891 108.22L132.23 108.227L132.809 82.0249L136.943 82.1089Z" />
<path d="M136.943 82.1089L136.208 115.398L132.141 115.315L113.81 88.7939L113.471 88.787L112.894 114.924L108.692 114.839L109.427 81.5497L113.493 81.6323L131.891 108.22L132.23 108.227L132.809 82.0249L136.943 82.1089Z" fill="black" fill-opacity="0.2"/>
<path d="M101.002 81.3784L100.267 114.667L96.0648 114.582L96.8 81.293L101.002 81.3784Z" />
<path d="M101.002 81.3784L100.267 114.667L96.0648 114.582L96.8 81.293L101.002 81.3784Z" fill="black" fill-opacity="0.2"/>
<path d="M57.078 113.79L48.325 80.3077L52.5947 80.3945L59.2476 107.654L59.5865 107.661L67.5726 80.6989L72.3167 80.7953L79.1052 108.058L79.4441 108.065L87.2946 81.0998L91.5644 81.1866L81.3409 114.283L77.0034 114.195L69.9309 87.5117L69.6598 87.5062L61.4155 113.878L57.078 113.79Z" />
<path d="M57.078 113.79L48.325 80.3077L52.5947 80.3945L59.2476 107.654L59.5865 107.661L67.5726 80.6989L72.3167 80.7953L79.1052 108.058L79.4441 108.065L87.2946 81.0998L91.5644 81.1866L81.3409 114.283L77.0034 114.195L69.9309 87.5117L69.6598 87.5062L61.4155 113.878L57.078 113.79Z" fill="black" fill-opacity="0.2"/>
</svg>
