<svg width="493" height="304" viewBox="0 0 493 304" fill="none" xmlns="http://www.w3.org/2000/svg">
<g opacity="0.2" clip-path="url(#clip0_1723_5932)">
<path d="M639.165 -18.4953C636.263 -23.5619 619.075 -28.4101 600.203 -32.3115L592.983 -38.0128C567.4 -58.1858 522.143 -56.1362 501.762 -53.9514L507.339 -61.6502L500.368 -62.8675C484.346 -65.6661 458.982 -53.9826 444.968 -46.5855L449.057 -58.9348L438.486 -52.0475C425.419 -43.5476 407.098 -20.2951 396.237 -5.59457C394.707 -18.36 389.921 -33.4455 387.872 -39.5213L386.062 -44.8689L378.352 -39.9687C376.428 -48.1981 371.621 -55.1062 371.351 -55.4808L369.062 -58.7059L356.203 -51.6626L350.543 -71.5754L345.383 -67.6532C335.301 -59.9856 324.482 -45.9197 318.447 -37.4926L314.972 -46.1694L310.468 -37.9608C292.032 -4.3253 304.132 51.4703 304.683 53.9464C305.058 55.4549 310.426 76.429 321.485 103.104C315.753 107.131 310.405 111.594 305.349 116.39C306.545 110.127 306.982 103.666 306.296 97.0597C305.099 85.5219 300.646 73.7968 292.303 60.1366C284.24 46.9238 274.45 34.8346 263.214 24.1915L256.056 31.7447C266.626 41.7531 275.823 53.1349 283.418 65.557C290.929 77.8439 294.904 88.1956 295.944 98.1313C297.598 114.122 291.824 129.093 283.23 144.657C276.156 126.169 264.868 101.793 248.503 81.2875C233.75 62.7896 218.498 43.6466 185.383 38.2678L178.069 37.0714L181.575 43.709C172.607 43.2513 156.45 42.9391 145.172 45.5505L139.887 46.7782L149.875 61.229C146.681 62.9456 136.09 60.8129 136.09 60.8129L137.91 68.4805C137.993 68.8446 139.616 75.4926 143.809 81.017L135.985 83.4619L138.472 87.4986C141.229 91.9618 148.231 102.823 155.638 110.408C139.616 109.856 112.962 109.69 99.489 113.779L88.773 117.035L99.2705 120.76C86.0785 125.982 63.2629 136.334 55.5433 148.017L51.954 153.448L60.2354 153.812C46.5128 165.954 18.3393 193.961 16.1753 220.73L15.728 226.316C-2.92603 253.065 -0.304275 257.33 0.767316 259.078C2.97292 262.657 14.3859 265.601 34.7565 267.859L40.9052 272.041C62.2017 286.544 99.4265 282.216 117.997 278.835C118.746 278.304 119.506 277.774 120.255 277.233C122.585 279.854 125.322 282.174 128.588 283.912C128.703 283.974 128.838 283.995 128.953 284.058C123.719 296.24 122.71 309.672 126.622 322.5C129.847 333.049 136.194 341.975 144.496 348.863C136.922 353.94 130.503 360.619 126.102 368.9C119.069 382.145 117.612 397.334 121.982 411.681C122.086 412.003 122.263 412.295 122.367 412.617C119.849 412.857 117.342 413.231 114.866 413.991C104.493 417.164 95.9829 424.176 90.885 433.758C84.6115 445.556 84.9028 459.029 90.2608 470.254C85.2357 472.554 80.6685 475.831 76.8919 480.086C74.7799 477.964 72.4599 476.028 69.7445 474.582C54.6174 466.561 35.8177 472.304 27.7964 487.41C23.9054 494.724 23.0939 503.12 25.5075 511.037C27.9316 518.965 33.3 525.467 40.6139 529.358C45.2331 531.814 50.2166 532.989 55.1272 532.989C61.2862 532.989 67.154 530.888 72.2518 527.423C75.9244 533.717 81.2199 539.169 88.1176 542.831C94.1726 546.056 100.675 547.575 107.094 547.575C121.639 547.575 135.736 539.752 143.018 526.039H143.029C143.778 524.635 144.225 523.158 144.798 521.711C147.846 524.385 151.102 526.882 154.837 528.869C163.212 533.322 172.212 535.434 181.086 535.434C201.207 535.434 220.683 524.614 230.764 505.648C234.114 499.343 236.101 492.581 236.902 485.694C242.052 487.223 247.306 488.222 252.654 488.222C258.168 488.222 263.713 487.4 269.144 485.735C283.491 481.355 295.268 471.648 302.311 458.404C305.547 452.308 307.471 445.764 308.314 439.116C314.66 441.488 321.215 442.84 327.738 442.84C347.848 442.84 367.324 432.01 377.406 413.054C383.554 401.475 384.969 388.751 382.784 376.766C385.385 377.13 387.997 377.369 390.598 377.369C410.719 377.369 430.194 366.549 440.276 347.594C450.347 328.648 448.203 306.603 436.988 289.936C437.55 288.479 438.601 286.835 440.203 285.056C450.95 273.165 467.055 266.902 481.184 269.097C496.092 271.417 508.244 283.943 508.858 297.603C508.941 299.538 508.764 301.505 508.337 303.471C502.959 300.631 496.727 299.091 490.755 299.049C482.068 299.101 474.535 302.295 470.103 307.809C467.17 311.461 465.817 316.413 466.493 321.053C467.066 324.986 469.042 328.305 472.07 330.406C474.764 332.258 478.26 333.205 482.474 333.226C482.526 333.226 482.588 333.226 482.64 333.226C491.057 333.226 499.577 329.376 506.049 322.645C508.358 320.252 510.304 317.62 511.864 314.842C516.276 318.941 519.49 324.258 520.708 330.136C522.32 337.991 520.25 346.584 515.662 353.628C512.135 350.559 507.807 348.363 503.063 347.458C496.987 346.283 491.046 347.458 486.76 350.621C481.308 354.658 479.155 361.857 481.766 367.35C483.181 370.315 485.688 372.49 489.018 373.634C494.011 375.351 500.607 374.633 506.246 371.793C509.648 370.076 512.759 367.871 515.495 365.301C516.317 366.965 516.889 368.744 517.149 370.576C518.263 378.347 513.893 386.909 506.756 390.936L510.377 397.355C520.219 391.81 526.003 380.366 524.453 369.525C523.933 365.894 522.611 362.461 520.676 359.433C527.158 350.538 530.113 339.208 527.938 328.648C526.253 320.408 521.436 313.074 514.892 307.768C515.943 304.314 516.411 300.766 516.244 297.25C515.474 279.927 500.888 264.686 482.349 261.793C465.828 259.192 447.121 266.392 434.762 280.094C433.701 281.269 432.847 282.424 432.078 283.569C427.854 278.908 422.933 274.757 417.065 271.635C408.284 266.964 398.837 265.029 389.568 265.299C396.341 246.614 388.829 225.318 370.778 215.725C362.403 211.273 352.977 210.159 343.822 212.022C341.148 205.27 336.872 199.402 331.192 194.98C332.232 193.68 333.179 192.286 333.98 190.777C337.788 183.619 338.579 175.411 336.217 167.66C333.855 159.909 328.601 153.542 321.444 149.734C314.275 145.916 306.056 145.146 298.326 147.508C296.09 148.194 294.019 149.172 292.042 150.317C293.842 147.071 295.569 143.658 297.213 140.173C297.64 139.861 298.077 139.57 298.441 139.101C306.244 128.968 315.378 120.167 325.657 112.759C333.554 130.445 343.77 149.765 356.556 167.244C373.723 190.663 391.482 214.883 429.508 224.745L438.954 227.201L434.751 218.836C445.27 220.324 463.175 222.238 475.742 220.355L482.505 219.356L471.206 201.743L485.251 197.508L484.294 193.461C484.18 193.024 482.266 185.076 477.438 178.178L486.385 176.097L483.41 170.927C480.226 165.413 472.174 152.002 463.674 142.275C482.234 144.605 512.052 147.456 527.262 144.054L540.1 141.182L527.938 135.627C543.159 130.726 568.992 120.812 577.72 107.703L581.632 101.835L572.019 100.514C587.646 87.4986 619.845 57.0155 621.937 25.2527L622.373 18.7295C643.389 -11.1502 640.278 -16.5498 639.165 -18.4953ZM68.1735 517.716C61.9 522.866 53.0672 524.271 45.4828 520.245C40.6035 517.644 37.035 513.305 35.412 508.02C33.789 502.735 34.33 497.138 36.9309 492.248C39.5319 487.369 43.8703 483.79 49.1658 482.167C51.1633 481.553 53.2129 481.251 55.2416 481.251C58.5812 481.251 61.9 482.073 64.9379 483.686C67.3516 484.965 69.2763 486.817 70.9617 488.867C66.3321 498.147 65.5934 508.374 68.1735 517.716ZM500.774 317.547C495.697 322.832 489.101 325.86 482.682 325.86C480.174 325.756 477.761 325.35 476.304 324.341C474.619 323.176 474.026 321.334 473.838 320.003C473.464 317.391 474.244 314.499 475.898 312.439C478.895 308.715 484.482 306.467 490.849 306.426C490.911 306.426 490.963 306.426 491.026 306.426C496.279 306.426 501.398 307.893 505.893 310.442C504.55 312.991 502.834 315.404 500.774 317.547ZM502.959 365.228C499.151 367.153 494.521 367.735 491.431 366.674C489.975 366.175 489.007 365.374 488.456 364.208C487.374 361.951 488.633 358.455 491.171 356.572C493.106 355.157 495.666 354.408 498.485 354.408C499.546 354.408 500.628 354.512 501.731 354.72C505.216 355.376 508.431 357.061 511.022 359.391C508.639 361.732 505.934 363.73 502.959 365.228ZM300.459 258.797C307.461 254.729 315.399 252.451 323.535 252.451C330.776 252.451 338.131 254.178 344.977 257.809C367.283 269.669 375.783 297.468 363.912 319.784C352.905 340.519 328.154 349.071 306.785 340.675C306.421 336.971 305.703 333.288 304.589 329.647C301.146 318.4 294.154 309.047 284.999 302.035C288.505 298.363 291.699 294.368 294.154 289.759C299.273 280.115 301.354 269.44 300.459 258.797ZM291.345 367.569C285.603 378.389 275.989 386.316 264.285 389.895C253.163 393.287 241.48 392.247 231.087 387.242C229.131 373.884 222.524 361.358 211.85 352.358C219.164 347.406 225.489 340.769 229.921 332.446C232.293 327.993 233.708 323.321 234.749 318.619C237.974 319.191 241.22 319.586 244.497 319.586C250.011 319.586 255.556 318.765 260.987 317.1C266.949 315.279 272.317 312.345 277.227 308.819C285.498 314.645 291.699 322.832 294.706 332.664C298.285 344.368 297.088 356.77 291.345 367.569ZM285.02 284.921C279.277 295.731 269.664 303.658 257.96 307.237C246.255 310.826 233.864 309.62 223.044 303.877C200.739 292.016 192.239 264.217 204.11 241.901C212.329 226.42 228.226 217.598 244.643 217.598C251.894 217.598 259.239 219.325 266.085 222.956C276.895 228.699 284.822 238.312 288.401 250.027C291.959 261.721 290.773 274.122 285.02 284.921ZM157.084 230.343C150.977 227.097 144.267 226.264 137.91 227.326C135.788 217.234 136.787 206.445 141.999 196.645C147.742 185.835 157.355 177.908 169.059 174.329C173.491 172.976 178.017 172.3 182.522 172.3C189.919 172.3 197.253 174.11 203.974 177.689C216.854 184.535 224.928 196.749 227.341 210.097C213.941 214.415 202.112 223.663 194.985 237.053C190.543 245.407 188.691 254.375 188.681 263.24C183.375 263.978 177.923 263.749 172.544 262.574C174.844 249.923 169.018 236.689 157.084 230.343ZM270.413 207.902C269.57 209.493 268.894 211.117 268.301 212.76C258.324 208.089 247.649 206.508 237.36 207.86C235.695 198.996 231.971 190.611 226.374 183.422C226.946 180.966 227.768 178.542 228.985 176.253C234.416 166.026 244.913 160.19 255.764 160.19C260.55 160.19 265.409 161.324 269.924 163.727C272.972 165.35 275.48 167.535 277.685 169.949C275.802 178.417 277.664 187.198 282.627 194.138C277.727 197.675 273.44 202.211 270.413 207.902ZM116.052 242.869C111.1 252.201 111.547 262.969 116.249 271.625C100.717 274.392 72.1582 277.763 52.6719 269.95L73.7291 263.666L53.7747 262.168C34.6941 260.743 12.4092 257.778 7.42575 255.26C8.57016 249.902 20.5761 231.643 31.7602 216.807L46.2943 197.519L25.2266 212.635C33.997 183.557 71.69 153.771 72.1166 153.448L79.9818 147.289L66.6546 146.707C78.3276 136.688 101.819 127.345 111.256 124.172L121.389 120.77L114.949 118.481C136.641 116.317 167.904 118.367 168.289 118.387L168.809 111.032C164.794 110.741 155.066 99.3381 147.336 87.6339L159.196 83.9301L152.86 79.6437C149.75 77.5318 142.925 69.7809 141.718 66.8575C145.619 67.5025 152.944 68.1579 157.147 65.5674L160.455 63.5283L152.319 51.7616C167.259 49.7432 187.391 51.4599 187.63 51.4911L194.382 52.0841L191.739 47.1007C216.927 53.4678 229.547 69.3024 243.165 86.3958C260.28 107.838 271.817 134.617 278.455 153.001C277.883 153.958 277.29 154.936 276.697 155.904C276.041 155.498 275.48 154.998 274.783 154.624C255.005 144.106 230.379 151.648 219.892 171.416C219.268 172.591 218.769 173.808 218.29 175.026C215.398 172.612 212.287 170.396 208.822 168.565C195.589 161.522 180.399 160.055 166.052 164.445C151.706 168.825 139.929 178.532 132.885 191.776C126.268 204.229 124.885 218.066 127.871 230.821C123.033 233.568 118.861 237.605 116.052 242.869ZM125.155 247.727C128.765 240.965 135.715 237.105 142.883 237.105C146.046 237.105 149.261 237.854 152.236 239.446C161.995 244.627 165.699 256.779 160.518 266.527C158.01 271.25 153.807 274.715 148.689 276.286C143.601 277.846 138.17 277.326 133.437 274.819C123.709 269.627 119.984 257.476 125.155 247.727ZM136.516 319.482C133.197 308.631 134.154 297.229 138.878 287.002C140.189 287.179 141.479 287.491 142.81 287.491C145.796 287.491 148.793 287.043 151.716 286.149C159.061 283.901 165.095 279.001 168.945 272.416C173.387 273.529 177.871 274.288 182.355 274.288C184.811 274.288 187.235 274.049 189.648 273.716C192.707 289.904 202.559 304.678 218.207 313.001C220.36 314.145 222.576 315.134 224.834 315.976C223.991 319.93 222.795 323.852 220.797 327.608C216.573 335.556 210.092 341.695 202.362 345.908C202.247 345.846 202.164 345.762 202.05 345.7C188.826 338.657 173.637 337.2 159.28 341.58C157.563 342.1 156.023 342.943 154.39 343.619C145.921 337.772 139.564 329.47 136.516 319.482ZM135.247 373.759C140.99 362.95 150.603 355.022 162.307 351.443C166.739 350.09 171.265 349.414 175.77 349.414C183.167 349.414 190.501 351.224 197.222 354.803C219.538 366.664 228.038 394.463 216.168 416.779C213.567 421.669 210.029 425.653 206.107 429.118C193.227 422.709 178.651 421.356 164.804 425.601C159.404 427.245 154.535 429.867 149.979 432.925C141.395 427.079 134.956 418.735 131.876 408.664C128.307 396.97 129.494 384.569 135.247 373.759ZM100.04 438.606C103.827 431.459 110.184 426.225 117.914 423.864C120.827 422.969 123.803 422.532 126.778 422.522C130.544 429.211 135.715 434.913 141.884 439.573C137.921 443.506 134.342 447.865 131.647 452.942C128.568 458.737 126.841 464.855 125.935 471.003C117.716 466.727 108.717 465.677 100.207 467.185C95.5667 458.56 95.109 447.886 100.04 438.606ZM133.946 521.202C126.102 535.944 107.77 541.562 92.9762 533.728C78.2444 525.894 72.6159 507.521 80.45 492.779C85.8912 482.552 96.399 476.715 107.25 476.715C112.036 476.715 116.895 477.849 121.41 480.252C136.152 488.086 141.77 506.449 133.946 521.202ZM221.682 500.81C209.832 523.116 182.033 531.616 159.706 519.766C154.92 517.217 151.061 513.732 147.648 509.903C148.47 498.22 144.09 486.682 135.694 478.328C135.798 471.367 137.286 464.355 140.771 457.791C146.514 446.981 156.127 439.053 167.832 435.474C172.264 434.122 176.779 433.446 181.284 433.446C188.681 433.446 196.015 435.256 202.736 438.835C213.546 444.578 221.473 454.191 225.052 465.895C228.631 477.599 227.424 490.001 221.682 500.81ZM293.218 453.567C287.475 464.376 277.862 472.304 266.158 475.883C256.493 478.848 246.432 478.276 237.11 474.822C236.788 470.816 236.112 466.821 234.915 462.888C231.43 451.496 224.48 441.852 215.169 434.777C219.049 430.938 222.597 426.694 225.292 421.627C229.193 414.292 231.159 406.469 231.617 398.666C237.807 400.975 244.268 402.245 250.802 402.245C256.316 402.245 261.871 401.423 267.302 399.758C271.401 398.499 275.22 396.71 278.85 394.619C287.246 400.455 293.541 408.716 296.579 418.641C300.157 430.356 298.961 442.757 293.218 453.567ZM368.313 408.216C356.868 429.773 330.557 438.242 308.647 428.098C308.345 423.916 307.7 419.744 306.452 415.634C303.091 404.658 296.35 395.472 287.527 388.512C292.708 384.028 297.151 378.659 300.47 372.427C303.934 365.904 306.015 358.913 306.743 351.786C312.205 353.524 317.792 354.418 323.348 354.418C330.172 354.418 336.883 353.076 343.219 350.694C348.254 358.882 355.287 365.987 364.38 370.825C366.815 372.115 369.311 373.156 371.84 374.061C375.138 385.536 373.941 397.636 368.313 408.216ZM390.806 275.422C398.057 275.422 405.413 277.139 412.248 280.77C434.554 292.63 443.054 320.429 431.183 342.745C419.333 365.051 391.534 373.561 369.207 361.701C362.143 357.945 356.66 352.473 352.593 346.189C360.947 341.122 368.115 333.861 373.026 324.632C380.964 309.682 381.234 292.818 375.575 278.148C380.454 276.411 385.583 275.422 390.806 275.422ZM346.444 221.832C348.233 221.51 350.002 221.302 351.771 221.302C356.671 221.302 361.519 222.498 365.951 224.86C380.683 232.694 386.301 251.067 378.477 265.809C378.259 266.215 377.978 266.538 377.739 266.912C375.471 267.463 373.255 268.161 371.07 268.993C366.013 260.732 358.949 253.564 349.794 248.695C347.359 247.405 344.873 246.344 342.345 245.449C346.121 238.073 347.495 229.906 346.444 221.832ZM335.218 218.097C337.59 225.838 336.8 234.036 333.013 241.173C332.669 241.797 332.222 242.328 331.847 242.91C320.372 241.235 308.772 243.212 298.534 248.32C298.41 247.873 298.399 247.426 298.264 246.978C294.643 235.149 287.246 225.234 277.384 218.118C277.914 216.287 278.601 214.487 279.527 212.74C284.968 202.513 295.476 196.676 306.327 196.676C311.113 196.676 315.971 197.81 320.486 200.213C327.623 204.011 332.857 210.367 335.218 218.097ZM301.354 157.412C303.289 156.819 305.266 156.528 307.232 156.528C310.468 156.528 313.662 157.318 316.585 158.879C321.308 161.397 324.773 165.589 326.344 170.708C327.915 175.827 327.395 181.237 324.877 185.96H324.866C324.117 187.375 323.171 188.644 322.13 189.81C312.205 185.575 301.447 185.575 291.897 189.196C286.882 183.151 285.613 174.526 289.514 167.16C292.032 162.437 296.235 158.973 301.354 157.412ZM427.708 208.765L418.969 207.173L421.996 213.176C393.604 202.814 378.977 182.87 363.132 161.262C351.885 145.906 342.657 128.698 335.281 112.53L440.754 210.669C433.284 209.754 427.843 208.786 427.708 208.765ZM445.686 211.221L334.032 107.328C334.927 106.777 343.76 99.8791 346.194 98.433L460.615 201.607L467.419 212.209C460.449 212.479 452.604 211.938 445.686 211.221ZM459.003 196.187L348.847 96.8516C354.34 93.616 359.844 90.4013 365.42 87.3321L464.787 172.029L459.086 173.361L466.369 179.062C470.436 182.246 473.037 187.77 474.421 191.537L459.003 196.187ZM472.694 170.188L468.366 171.197L368.24 85.8444C373.567 82.9521 378.914 80.0911 384.314 77.3445L451.273 131.611C449.879 131.403 449.005 131.267 448.942 131.257C448.921 131.257 463.632 155.435 472.694 170.188ZM456.953 132.433L387.133 75.8568C392.46 73.183 397.87 70.7277 403.259 68.21L489.455 135.991C476.939 135.054 464.662 133.504 456.953 132.433ZM514.236 130.414L502.106 133.525L509.222 136.781C508.941 136.781 508.65 136.781 508.369 136.781C504.02 136.781 499.38 136.605 494.677 136.324L406.266 66.7951C411.218 64.5062 416.118 62.1029 421.122 59.9494L515.329 130.113C514.996 130.206 514.548 130.331 514.236 130.414ZM518.939 129.135L424.327 58.6697C429.154 56.6201 434.044 54.7371 438.913 52.8124L535.367 123.631C529.301 125.909 523.485 127.813 518.939 129.135ZM538.685 122.393L442.148 51.5119C447.579 49.3999 453.02 47.3087 458.503 45.332L554.946 114.881C549.88 117.638 544.272 120.198 538.685 122.393ZM557.766 113.29L461.916 44.1668C467.18 42.3045 472.455 40.463 477.761 38.736L561.844 97.3198C559.878 98.8804 558.598 99.8167 558.525 99.8791L549.609 106.34L564.965 108.452C562.895 110.127 560.408 111.729 557.766 113.29ZM564.237 95.3951L481.225 37.55C486.989 35.7085 492.825 34.0959 498.651 32.4209L575.546 85.5011C571.156 89.5898 567.233 92.9502 564.237 95.3951ZM577.731 83.4307L502.314 31.3701C510.096 29.1749 517.909 27.0838 525.774 25.1695L590.143 70.3844C586.002 75.1805 581.747 79.5813 577.731 83.4307ZM592.026 68.1163L529.634 24.2851C535.304 22.9326 540.964 21.5281 546.686 20.3317L588.332 49.1606L587.906 49.712L588.53 49.2959L600.151 57.3484C597.623 61.0834 594.876 64.6831 592.026 68.1163ZM550.66 19.489C556.257 18.3446 561.917 17.4498 567.556 16.4615L596.25 38.8505L590.143 46.8198L550.66 19.489ZM601.784 54.8723L591.204 47.548L599.995 41.7739L600.661 42.2941L602.169 40.3486L611.46 34.2416C609.504 41.3058 606.008 48.2555 601.784 54.8723ZM603.823 28.9564L598.039 36.5096L571.457 15.7644C575.255 15.1194 579 14.3183 582.808 13.7357C587.479 13.0178 585.492 5.91203 580.852 6.6299C544.262 12.2271 508.493 20.9039 473.703 32.3065L473.651 32.2753L473.61 32.3377C425.43 48.141 329.871 97.6943 329.07 98.1833C318.531 72.3923 313.381 52.2089 313.308 51.9176C313.193 51.4286 303.549 6.84838 314.182 -24.3734L316.481 -18.6513L321.121 -25.7675C321.267 -25.986 333.574 -44.7232 345.705 -56.2611L350.741 -38.5642L366.159 -47.0225C368.209 -43.2459 370.591 -37.5446 370.258 -32.7069L369.634 -23.9573L381.213 -31.3232C386.29 -14.8019 394.457 12.0503 394.457 12.0503C394.707 11.6861 414.62 -17.2676 431.672 -34.6212L429.206 -27.1616L439.475 -33.3935C448.963 -39.1572 473.974 -52.3284 491.026 -54.2427L482.151 -42.0079L492.867 -43.8597C493.45 -43.9534 546.665 -52.911 578.781 -36.5771L554.946 -31.3544L577.45 -27.557C599.87 -23.77 625.973 -17.7566 631.133 -14.2401C630.197 -8.4452 616.62 12.2688 603.823 28.9564Z" fill="#BAA371"/>
<path d="M252.997 227.721C251.53 226.556 249.428 228.626 250.916 229.802C260.831 237.688 267.146 248.456 269.196 260.951C269.497 262.823 272.348 262.022 272.036 260.17C269.913 247.228 263.265 235.888 252.997 227.721Z" fill="#BAA371"/>
<path d="M337.361 278.325C345.965 283.641 350.501 293.494 348.795 303.492C348.483 305.344 351.323 306.145 351.635 304.272C353.57 292.953 348.639 281.831 338.849 275.776C337.226 274.777 335.749 277.326 337.361 278.325Z" fill="#BAA371"/>
</g>
<defs>
<clipPath id="clip0_1723_5932">
<rect width="640" height="640" fill="white" transform="translate(0 -82)"/>
</clipPath>
</defs>
</svg>
