<svg width="88" height="88" viewBox="0 0 88 88" fill="none" xmlns="http://www.w3.org/2000/svg">
<path d="M29.8126 55.9196H47.4174C47.9592 55.9196 48.3955 56.3558 48.3955 56.8976C48.3955 57.4394 47.9592 57.8756 47.4174 57.8756H29.8126C29.2707 57.8756 28.8345 57.4394 28.8345 56.8976C28.8345 56.3558 29.2707 55.9196 29.8126 55.9196ZM38.615 59.8317C36.4633 59.8317 34.7028 61.5921 34.7028 63.7438C34.7028 65.8954 36.4633 67.6559 38.615 67.6559C40.7667 67.6559 42.5272 65.8954 42.5272 63.7438C42.5272 61.5921 40.7667 59.8317 38.615 59.8317ZM38.615 61.7877C39.7065 61.7877 40.5711 62.6523 40.5711 63.7438C40.5711 64.8353 39.7065 65.6998 38.615 65.6998C37.5235 65.6998 36.6589 64.8353 36.6589 63.7438C36.6589 62.6523 37.5235 61.7877 38.615 61.7877ZM38.615 46.1393C36.4633 46.1393 34.7028 47.8998 34.7028 50.0514C34.7028 52.2031 36.4633 53.9635 38.615 53.9635C40.7667 53.9635 42.5272 52.2031 42.5272 50.0514C42.5272 47.8998 40.7667 46.1393 38.615 46.1393ZM38.615 48.0954C39.7065 48.0954 40.5711 48.9599 40.5711 50.0514C40.5711 51.1429 39.7065 52.0075 38.615 52.0075C37.5235 52.0075 36.6589 51.1429 36.6589 50.0514C36.6589 48.9599 37.5235 48.0954 38.615 48.0954ZM62.0881 28.5348C59.9364 28.5348 58.1759 30.2953 58.1759 32.4469C58.1759 34.5986 59.9364 36.3591 62.0881 36.3591C64.2398 36.3591 66.0003 34.5986 66.0003 32.4469C66.0003 30.2953 64.2398 28.5348 62.0881 28.5348ZM62.0881 30.4909C63.1796 30.4909 64.0442 31.3555 64.0442 32.4469C64.0442 33.5384 63.1796 34.403 62.0881 34.403C60.9966 34.403 60.132 33.5384 60.132 32.4469C60.132 31.3555 60.9966 30.4909 62.0881 30.4909ZM14.0582 53.318C12.91 54.4525 12.9178 56.3343 14.0582 57.4727L37.0618 80.4759C38.1964 81.6143 40.0781 81.6241 41.2146 80.4759L69.6288 51.7141C70.112 51.2251 70.6695 50.7752 71.1311 50.0397C71.5908 49.3042 71.8666 48.3379 71.8666 47.0195V25.6008C71.8666 23.9909 70.5404 22.6667 68.9325 22.6667H47.4155C45.1503 22.6667 43.8475 23.8873 42.8186 24.9064L14.0582 53.318ZM15.4333 54.7107L44.1899 26.2971C45.2324 25.2682 45.7704 24.6227 47.4174 24.6227H68.9344C69.4919 24.6227 69.9125 25.0413 69.9125 25.6008V47.0235C69.9125 48.0934 69.7306 48.5981 69.4743 49.0049C69.22 49.4157 68.8014 49.7756 68.242 50.3429L39.8199 79.0968C39.4346 79.4881 38.8419 79.4881 38.4448 79.0929L15.4411 56.0898C15.0441 55.6927 15.0401 55.098 15.4333 54.7107Z" fill="url(#paint0_linear_1679_4988)"/>
<defs>
<linearGradient id="paint0_linear_1679_4988" x1="56.6013" y1="29.8504" x2="13.2" y2="91.5102" gradientUnits="userSpaceOnUse">
<stop stop-color="#BDB44A"/>
<stop offset="1" stop-color="#71701D"/>
</linearGradient>
</defs>
</svg>
