<svg width="85" height="157" viewBox="0 0 85 157" fill="none" xmlns="http://www.w3.org/2000/svg">
<path fill-rule="evenodd" clip-rule="evenodd" d="M5.34242 157H79.0658C80.0825 157 80.9446 156.241 81.0862 155.218C81.2282 154.197 80.6064 153.226 79.6288 152.941L44.2441 142.645V86.3195C66.573 84.9717 84.4086 61.595 84.4086 33.0535C84.4086 21.3807 81.482 10.2964 75.9458 0.999428C75.5761 0.379079 74.9139 0 74.1995 0H10.2087C9.49429 0 8.83169 0.379079 8.46244 0.999428C2.92621 10.2968 0 21.3807 0 33.0535C0 61.595 17.8351 84.9717 40.1641 86.3195V142.645L4.77978 152.942C3.80261 153.226 3.18081 154.197 3.32239 155.219C3.46397 156.241 4.32567 157 5.34242 157ZM64.5567 152.862H19.8507L42.1054 146.386C42.1706 146.389 42.2367 146.389 42.302 146.386L64.5567 152.862ZM42.2037 82.2424C27.1418 82.2424 14.0921 70.9143 7.90307 54.515L6.52033 50.3765C4.94299 44.9867 4.07965 39.1474 4.07965 33.0535C4.07965 22.5523 6.59867 12.5824 11.3748 4.13842H73.033C77.8095 12.582 80.3286 22.5519 80.3286 33.0535C80.3286 39.147 79.4652 44.9863 77.8883 50.3765L76.5047 54.515C70.3157 70.9143 57.2656 82.2424 42.2037 82.2424ZM11.4441 30.4981C11.5249 30.508 11.6057 30.5126 11.6849 30.5126C12.7053 30.5126 13.5862 29.7378 13.7086 28.6846C14.4813 22.0185 18.0232 13.1751 18.0587 13.0865C18.4851 12.0283 17.9857 10.8203 16.9428 10.3878C15.9004 9.95621 14.709 10.4619 14.2822 11.5197C14.128 11.9021 10.4951 20.9685 9.65627 28.2013C9.52489 29.336 10.325 30.3644 11.4441 30.4981Z" fill="#211F1A"/>
</svg>
