<svg xmlns="http://www.w3.org/2000/svg" fill="none" viewBox="33.490813648293965 0 1210.6929133858268 71.66666666666666" style="max-height: 500px" width="1210.6929133858268" height="71.66666666666666">
<path fill="url(#paint0_linear_1783_1682)" d="M1234.51 70H1244.74V24.8736L1234.51 25.3521C1193.02 27.2933 1110.04 31.1757 1027.05 31.1757C1003.34 31.1757 979.635 30.8588 955.925 30.5418C896.652 29.7495 837.379 28.9572 778.106 33.1169C750.445 35.0581 722.784 38.0778 695.124 41.0975C639.802 47.1368 584.481 53.1761 529.159 50.5878C485.484 48.5445 441.809 41.1238 398.134 33.703C358.827 27.0244 319.519 20.3458 280.212 17.5872C197.23 11.7635 114.247 23.4108 72.7561 29.2345L31.2649 35.0581V70H41.4912H72.7561H248.947H280.212H497.894H529.159H746.841H778.106H995.788H1027.05H1203.24H1234.51Z"/>
<path fill="url(#paint1_linear_1783_1682)" d="M0 24.705L41.4912 17.1558C82.9823 9.60664 165.965 -5.4917 248.947 2.05747C288.254 5.63339 327.562 14.2909 366.869 22.9484C410.544 32.5678 454.219 42.1873 497.894 44.8361C553.216 48.1913 608.537 40.3625 663.859 32.5338C691.52 28.6194 719.18 24.705 746.841 22.1886C797.213 17.6061 847.585 20.9125 897.957 24.2189C930.567 26.3595 963.178 28.5 995.788 28.5C1051.83 28.5 1107.87 22.1789 1151.13 17.2992C1171.93 14.953 1189.77 12.9401 1203.24 12.123L1244.74 9.60664V24.8736L1234.51 25.3521C1193.02 27.2933 1110.04 31.1757 1027.05 31.1757C1003.34 31.1757 979.635 30.8588 955.925 30.5418C896.652 29.7495 837.379 28.9572 778.106 33.1169C750.445 35.0581 722.784 38.0778 695.124 41.0975C639.802 47.1368 584.481 53.1761 529.159 50.5878C485.484 48.5445 441.809 41.1238 398.134 33.703C358.827 27.0244 319.519 20.3458 280.212 17.5872C197.23 11.7635 114.247 23.4108 72.7561 29.2345L31.2649 35.0581V70H0V24.705Z" clip-rule="evenodd" fill-rule="evenodd"/>
<path fill="url(#paint2_linear_1783_1682)" d="M1276 70V23.4108L1244.74 24.8736V70H1276Z"/>
<defs>
<linearGradient gradientUnits="userSpaceOnUse" y2="118.43" x2="939.737" y1="8.57143" x1="943.98" id="paint0_linear_1783_1682">
<stop stop-color="#BDB44A"/>
<stop stop-color="#71701D" offset="1"/>
</linearGradient>
<linearGradient gradientUnits="userSpaceOnUse" y2="139.58" x2="7.65721" y1="0" x1="0" id="paint1_linear_1783_1682">
<stop stop-color="#FFD553"/>
<stop stop-color="#BDB44A" offset="1"/>
</linearGradient>
<linearGradient gradientUnits="userSpaceOnUse" y2="118.43" x2="939.737" y1="8.57143" x1="943.98" id="paint2_linear_1783_1682">
<stop stop-color="#BDB44A"/>
<stop stop-color="#71701D" offset="1"/>
</linearGradient>
</defs>
</svg>